{"title":"Love.&amp;.Friendship.2016.x264.720p.AR.HC.AT.KataMish","uid":14871893,"size":1753348546,"categoryP":"video","categoryS":"movies","magnet":"?xt=urn:btih:74e63fb7633eff4cd23a2059a2492a755a43e7ed&amp;dn=Love.%26amp%3B.Friendship.2016.x264.720p.AR.HC.AT.KataMish&amp;tr=udp%3A%2F%2Ftracker.leechers-paradise.org%3A6969&amp;tr=udp%3A%2F%2Fzer0day.ch%3A1337&amp;tr=udp%3A%2F%2Fopen.demonii.com%3A1337&amp;tr=udp%3A%2F%2Ftracker.coppersurfer.tk%3A6969&amp;tr=udp%3A%2F%2Fexodus.desync.com%3A6969","seeders":2,"leechers":1,"uploader":"xxxlavalxxx","files":2,"time":1465580185,"description":"http://extraimago.com/image/aCOU\r\n \nhttp://www.imdb.com/title/tt3068194/\r\n\r\n\r\nLady Susan Vernon takes up temporary residence at her in-laws' estate and, while there, is determined to be a matchmaker for her daughter Frederica -- and herself too, naturally.\r\n\r\nDirector: Whit Stillman\r\nWriters: Jane Austen (based on her novella &quot;Lady Susan&quot;), Whit Stillman\r\nStars: Kate Beckinsale, Chloë Sevigny, Xavier Samuel\r\nGenres: Comedy | Drama | Romance\r\nCountry: Ireland | Netherlands | France | USA\r\nLanguage: English\r\n\r\n\r\nFormat                                   : Matroska\r\nFormat version                           : Version 2\r\nFile size                                : 1.63 GiB\r\nDuration                                 : 1h 33mn\r\nOverall bit rate                         : 2 502 Kbps\r\nEncoded date                             : UTC 2016-06-09 22:07:44\r\nWriting application                      : mkvmerge v8.5.2 ('Crosses') 32bit\r\nWriting library                          : libebml v1.3.3 + libmatroska v1.4.4\r\n\r\nVideo\r\nID                                       : 1\r\nFormat                                   : AVC\r\nFormat/Info                              : Advanced Video Codec\r\nFormat profile                           :   \r\nFormat settings, CABAC                   : Yes\r\nFormat settings, ReFrames                : 4 frames\r\nCodec ID                                 : V_MPEG4/ISO/AVC\r\nDuration                                 : 1h 33mn\r\nBit rate                                 : 2 116 Kbps\r\nWidth                                    : 1 280 pixels\r\nHeight                                   : 720 pixels\r\nDisplay aspect ratio                     : 16:9\r\nFrame rate mode                          : Constant\r\nFrame rate                               : 25.000 fps\r\nColor space                              : YUV\r\nChroma subsampling                       : 4:2:0\r\nBit depth                                : 8 bits\r\nScan type                                : Progressive\r\nBits/(Pixel*Frame)                       : 0.092\r\nStream size                              : 1.38 GiB (85%)\r\nWriting library                          : x264 core 148 r2638 \r\nDefault                                  : Yes\r\nForced                                   : No\r\n\r\nAudio\r\nID                                       : 2\r\nFormat                                   : AC-3\r\nFormat/Info                              : Audio Coding 3\r\nMode extension                           : CM (complete main)\r\nFormat settings, Endianness              : Big\r\nCodec ID                                 : A_AC3\r\nDuration                                 : 1h 33mn\r\nBit rate mode                            : Constant\r\nBit rate                                 : 384 Kbps\r\nChannel(s)                               : 2 channels\r\nChannel positions                        : Front: L R\r\nSampling rate                            : 48.0 KHz\r\nFrame rate                               : 31.250 fps (1536 spf)\r\nCompression mode                         : Lossy\r\nStream size                              : 257 MiB (15%)\r\nDefault                                  : Yes\r\nForced                                   : No\r\n\r\n \nhttp://extraimago.com/image/aCSb \nhttp://extraimago.com/image/aCS3 \nhttp://extraimago.com/image/aCS9 \nhttp://extraimago.com/image/aCSM \nhttp://extraimago.com/image/aCSU","torrent":{"xt":"urn:btih:74e63fb7633eff4cd23a2059a2492a755a43e7ed","amp;dn":"Love.%26amp%3B.Friendship.2016.x264.720p.AR.HC.AT.KataMish","amp;tr":["udp%3A%2F%2Ftracker.leechers-paradise.org%3A6969","udp%3A%2F%2Fzer0day.ch%3A1337","udp%3A%2F%2Fopen.demonii.com%3A1337","udp%3A%2F%2Ftracker.coppersurfer.tk%3A6969","udp%3A%2F%2Fexodus.desync.com%3A6969"],"infoHash":"74e63fb7633eff4cd23a2059a2492a755a43e7ed","infoHashBuffer":{"type":"Buffer","data":[116,230,63,183,99,62,255,76,210,58,32,89,162,73,42,117,90,67,231,237]},"announce":[],"urlList":[]}}